<svg xmlns="http://www.w3.org/2000/svg" viewBox="0 0 760 330" font-family="Arial, sans-serif">
  <rect x="0" y="0" width="760" height="330" fill="#ffffff"/>

  <text x="380" y="30" text-anchor="middle" font-size="18" font-weight="bold" fill="#1a3c5e">Какие нормы РК касаются применения ИИ</text>

  <!-- Центр: применение ИИ -->
  <rect x="280" y="55" width="200" height="46" rx="8" fill="#2196F3"/>
  <text x="380" y="78" text-anchor="middle" font-size="14" font-weight="bold" fill="#ffffff">Применение ИИ</text>
  <text x="380" y="94" text-anchor="middle" font-size="11" fill="#ffffff">(пока нет отдельного «закона об ИИ»)</text>

  <!-- Блок 1: персональные данные -->
  <rect x="30" y="150" width="220" height="80" rx="8" fill="#e8f4fd" stroke="#2196F3" stroke-width="1.5"/>
  <text x="140" y="172" text-anchor="middle" font-size="13" font-weight="bold" fill="#0d2b45">Персональные данные</text>
  <text x="140" y="192" text-anchor="middle" font-size="11" fill="#37474f">Закон РК «О персональных</text>
  <text x="140" y="208" text-anchor="middle" font-size="11" fill="#37474f">данных и их защите»</text>
  <text x="140" y="224" text-anchor="middle" font-size="11" fill="#37474f">№ 94-V, 2013</text>

  <!-- Блок 2: информатизация -->
  <rect x="270" y="150" width="220" height="80" rx="8" fill="#e8f4fd" stroke="#2196F3" stroke-width="1.5"/>
  <text x="380" y="172" text-anchor="middle" font-size="13" font-weight="bold" fill="#0d2b45">Информатизация</text>
  <text x="380" y="192" text-anchor="middle" font-size="11" fill="#37474f">Закон РК</text>
  <text x="380" y="208" text-anchor="middle" font-size="11" fill="#37474f">«Об информатизации»</text>
  <text x="380" y="224" text-anchor="middle" font-size="11" fill="#37474f">№ 418-V, 2015</text>

  <!-- Блок 3: этика и ответственность -->
  <rect x="510" y="150" width="220" height="80" rx="8" fill="#e8f5e9" stroke="#4CAF50" stroke-width="1.5"/>
  <text x="620" y="172" text-anchor="middle" font-size="13" font-weight="bold" fill="#1b5e20">Этика и ответственность</text>
  <text x="620" y="192" text-anchor="middle" font-size="11" fill="#2e7d32">прозрачность, авторство,</text>
  <text x="620" y="208" text-anchor="middle" font-size="11" fill="#2e7d32">ответственность человека</text>
  <text x="620" y="224" text-anchor="middle" font-size="11" fill="#2e7d32">(концепции, UNESCO)</text>

  <!-- Стрелки -->
  <g stroke="#90caf9" stroke-width="2.5" fill="none" marker-end="url(#arr)">
    <path d="M320 101 L150 150"/>
    <path d="M380 101 L380 150"/>
    <path d="M440 101 L610 150"/>
  </g>

  <defs>
    <marker id="arr" markerWidth="8" markerHeight="8" refX="6" refY="3" orient="auto"><path d="M0,0 L6,3 L0,6 Z" fill="#2196F3"/></marker>
  </defs>

  <text x="380" y="290" text-anchor="middle" font-size="12" fill="#37474f" font-style="italic">ИИ применяют по действующим нормам — в первую очередь о данных и информатизации</text>
  <text x="380" y="312" text-anchor="middle" font-size="11" fill="#37474f">источник законов: adilet.zan.kz</text>
</svg>
